<?xml version="1.0" standalone="no"?>
<!DOCTYPE svg PUBLIC "-//W3C//DTD SVG 20010904//EN"
 "http://www.w3.org/TR/2001/REC-SVG-20010904/DTD/svg10.dtd">
<svg version="1.0" xmlns="http://www.w3.org/2000/svg"
 width="100.000000pt" height="100.000000pt" viewBox="0 0 100.000000 100.000000"
 preserveAspectRatio="xMidYMid meet">

<g transform="translate(0.000000,100.000000) scale(0.100000,-0.100000)"
fill="#000000" stroke="none">
<path d="M169 869 c-27 -27 -24 -112 4 -117 16 -3 18 1 12 27 -5 22 -2 40 10
58 15 23 22 25 67 21 56 -6 83 -27 97 -76 13 -46 -6 -62 -74 -62 -66 0 -98
-24 -138 -104 -17 -33 -49 -74 -78 -99 -46 -39 -49 -45 -49 -89 0 -39 5 -50
31 -72 27 -23 40 -26 104 -26 52 0 76 4 85 15 15 18 31 10 90 -47 97 -92 243
-92 340 0 59 57 75 65 90 47 9 -11 33 -15 85 -15 64 0 77 3 104 26 26 22 31
33 31 72 0 44 -3 50 -49 89 -29 25 -61 66 -78 99 -40 80 -72 104 -138 104 -68
0 -87 16 -74 62 14 49 41 70 97 76 45 4 52 2 67 -21 12 -18 15 -36 10 -58 -6
-26 -4 -30 12 -27 14 2 19 14 21 50 4 66 -19 88 -93 88 -81 0 -118 -19 -138
-69 -10 -23 -17 -47 -17 -54 0 -9 -28 -12 -100 -12 -72 0 -100 3 -100 12 0 7
-7 31 -17 54 -20 50 -57 69 -138 69 -42 0 -60 -5 -76 -21z m436 -163 c17 -9
38 -16 47 -16 21 0 49 -35 72 -91 10 -24 22 -52 27 -61 12 -24 11 -108 -1
-108 -5 0 -10 6 -10 14 0 20 -39 66 -56 66 -20 0 -17 -28 6 -57 31 -40 25 -61
-36 -117 -58 -53 -94 -69 -154 -69 -60 0 -96 16 -154 69 -61 56 -67 77 -36
117 23 29 26 57 6 57 -17 0 -56 -46 -56 -66 0 -8 -4 -14 -10 -14 -12 0 -13 84
-1 108 5 9 17 37 27 61 23 55 51 91 71 91 8 0 29 6 46 14 18 8 39 17 47 20 27
10 134 -1 165 -18z m-354 -65 c-12 -22 -21 -49 -21 -60 0 -11 -5 -23 -11 -27
-7 -4 -10 -37 -8 -88 2 -45 0 -87 -5 -94 -4 -7 -28 -12 -54 -12 -36 0 -52 6
-74 27 -15 15 -28 34 -28 44 0 9 22 36 50 59 30 26 59 61 74 94 23 49 82 113
93 102 2 -2 -5 -22 -16 -45z m535 7 c12 -12 31 -44 43 -70 13 -27 43 -65 72
-89 27 -22 49 -49 49 -58 0 -10 -13 -29 -28 -44 -22 -21 -38 -27 -74 -27 -26
0 -50 5 -54 12 -5 7 -7 49 -5 94 2 51 -1 84 -8 88 -6 4 -11 16 -11 27 0 11 -9
37 -20 59 -11 22 -20 42 -20 45 0 10 34 -12 56 -37z"/>
<path d="M397 673 c-4 -3 -7 -17 -7 -29 0 -32 46 -54 110 -54 70 0 112 23 108
58 -2 19 -9 28 -26 30 -19 3 -23 0 -20 -19 2 -19 -3 -25 -29 -32 -49 -14 -99
2 -95 31 2 16 -2 22 -16 22 -10 0 -22 -3 -25 -7z"/>
<path d="M370 569 c0 -14 5 -19 17 -17 26 5 29 38 4 38 -15 0 -21 -6 -21 -21z"/>
<path d="M592 573 c5 -26 38 -29 38 -4 0 15 -6 21 -21 21 -14 0 -19 -5 -17
-17z"/>
<path d="M377 504 c-4 -4 -7 -18 -7 -31 0 -20 5 -23 36 -23 33 0 35 2 32 28
-2 20 -9 28 -28 30 -14 2 -29 0 -33 -4z"/>
<path d="M567 504 c-4 -4 -7 -18 -7 -31 0 -20 5 -23 36 -23 33 0 35 2 32 28
-2 20 -9 28 -28 30 -14 2 -29 0 -33 -4z"/>
<path d="M450 377 c0 -16 28 -37 50 -37 22 0 50 21 50 37 0 5 -22 9 -50 9 -27
0 -50 -4 -50 -9z"/>
<path d="M430 326 c0 -20 39 -46 70 -46 31 0 70 26 70 46 0 18 -20 18 -48 -2
-20 -14 -24 -14 -44 0 -28 20 -48 20 -48 2z"/>
</g>
</svg>
